<svg width="1333" height="213" viewBox="0 0 1333 213" fill="none" xmlns="http://www.w3.org/2000/svg">
<g clip-path="url(#clip0_1_17)">
<path d="M204.61 92.33C197.89 42.1 154.77 3.23001 102.73 3.23001C98.65 3.23001 94.59 3.48001 90.55 3.95001C88.32 1.52001 85.13 -0.00999451 81.58 -0.00999451C74.85 -0.00999451 69.39 5.45001 69.39 12.18C69.39 16.94 72.12 21.05 76.1 23.05V57.86C72.13 59.87 69.39 63.98 69.39 68.73C69.39 73.48 72.12 77.6 76.1 79.6L76.13 152.78C72.14 154.78 69.39 158.9 69.39 163.67C69.39 170.4 74.85 175.86 81.58 175.86C88.31 175.86 93.77 170.4 93.77 163.67C93.77 158.93 91.06 154.83 87.1 152.82L87.07 79.6C90.21 78.01 92.57 75.1 93.41 71.6C96.48 71.15 99.59 70.91 102.72 70.91C137.72 70.91 166.19 99.38 166.19 134.38C166.19 169.38 137.72 197.85 102.72 197.85C99.57 197.85 96.41 197.68 93.26 197.36C91.78 192.3 87.11 188.61 81.57 188.61C77.94 188.61 74.69 190.21 72.46 192.73C50.19 184.97 31.73 168.99 20.9 147.71C2.85 112.26 9.97999 69.26 37.35 41.52C38.57 41.93 39.88 42.17 41.25 42.17C47.98 42.17 53.44 36.71 53.44 29.98C53.44 23.25 47.98 17.79 41.25 17.79C34.52 17.79 29.06 23.25 29.06 29.98C29.06 31.28 29.27 32.53 29.65 33.71C-1.08 64.77 -9.1 112.96 11.13 152.68C23.4 176.77 44.37 194.79 69.67 203.36C70.85 208.86 75.73 212.98 81.58 212.98C85.53 212.98 89.03 211.09 91.26 208.18C95.07 208.61 98.9 208.82 102.73 208.83C156.5 208.83 200.75 167.33 205.16 114.68C209.33 112.74 212.23 108.53 212.23 103.63C212.23 98.73 209.08 94.15 204.61 92.34V92.33ZM167.48 171.07C173.64 160.24 177.17 147.72 177.17 134.39C177.17 93.35 143.78 59.95 102.73 59.95C98.75 59.95 94.79 60.27 90.9 60.89C89.85 59.64 88.55 58.61 87.08 57.87V23.06C90.34 21.41 92.77 18.35 93.53 14.67C96.58 14.37 99.66 14.21 102.74 14.21C149.04 14.21 187.44 48.66 193.67 93.26C190.19 95.41 187.86 99.24 187.86 103.63C187.86 108.23 190.42 112.24 194.18 114.31C192.2 136.4 182.35 156.26 167.48 171.07Z" fill="url(#paint0_linear_1_17)"/>
<path d="M258.63 162.62V48.2H298.37C333 48.2 354.19 75.57 354.19 105.41C354.19 140.35 332.08 162.62 295.9 162.62H258.64H258.63ZM295.28 147.31C321.72 147.31 337.49 131.85 337.49 105.72C337.49 79.59 319.4 63.51 296.05 63.51H275.33V147.31H295.28Z" fill="#7E6BF9"/>
<path d="M409.39 164.78C385.27 164.78 363.78 144.22 363.78 120.09C363.78 93.96 384.34 74.63 410.63 74.63C434.29 74.63 456.55 93.18 456.24 120.4C455.93 143.28 436.76 164.78 409.39 164.78ZM409.85 89.33C393.77 89.33 379.85 102.94 379.85 119.64C379.85 136.34 393.3 150.1 409.54 150.1C425.78 150.1 440.15 136.8 440.15 119.49C440.15 102.18 426.7 89.34 409.84 89.34L409.85 89.33Z" fill="#7E6BF9"/>
<path d="M468.76 162.62V48.2H484.84V162.62H468.76Z" fill="#7E6BF9"/>
<path d="M501.69 162.62V48.2H517.77V88.87H518.08C525.04 79.44 535.86 74.64 547.46 74.64C571.73 74.64 591.84 95.05 591.84 119.79C591.84 144.53 572.98 164.78 548.86 164.78C536.49 164.78 525.05 159.83 517.94 150.25H517.63V162.62H501.7H501.69ZM575.75 119.79C575.75 103.56 562.92 89.33 546.37 89.33C529.82 89.33 517.3 103.25 517.3 119.48C517.3 135.71 530.13 150.09 546.52 150.09C562.91 150.09 575.74 136.48 575.74 119.78L575.75 119.79Z" fill="#7E6BF9"/>
<path d="M645.32 164.78C621.2 164.78 599.71 144.22 599.71 120.09C599.71 93.96 620.27 74.63 646.56 74.63C670.22 74.63 692.48 93.18 692.17 120.4C691.86 143.28 672.69 164.78 645.32 164.78ZM645.79 89.33C629.71 89.33 615.79 102.94 615.79 119.64C615.79 136.34 629.24 150.1 645.48 150.1C661.72 150.1 676.09 136.8 676.09 119.49C676.09 102.18 662.64 89.34 645.78 89.34L645.79 89.33Z" fill="#7E6BF9"/>
<path d="M818.19 162.62V114.69C818.19 98.46 811.39 89.33 797.93 89.33C783.7 89.33 777.52 97.22 777.52 114.38V162.62H761.44V112.83C761.44 95.98 753.55 89.33 741.96 89.33C727.74 89.33 720.78 97.68 720.78 114.53V162.62H704.7V76.96H719.54V86.24H719.85C726.81 78.04 733.3 74.64 744.43 74.64C755.56 74.64 766.7 80.05 771.02 89.02C777.21 79.28 785.71 74.64 799.32 74.64C821.59 74.64 834.26 88.56 834.26 110.67V162.62H818.18H818.19Z" fill="#7E6BF9"/>
<path d="M850.65 162.62V48.2H890.39C925.02 48.2 946.21 75.57 946.21 105.41C946.21 140.35 924.1 162.62 887.92 162.62H850.66H850.65ZM887.3 147.31C913.74 147.31 929.51 131.85 929.51 105.72C929.51 79.59 911.42 63.51 888.07 63.51H867.35V147.31H887.3Z" fill="#19C2DA"/>
<path d="M960.27 162.62V76.96H975.27V84.69H975.58C979.45 78.97 986.09 75.26 997.38 74.64V91.18C983.46 91.64 976.35 100.15 976.35 114.53V162.62H960.27Z" fill="#19C2DA"/>
<path d="M1016.4 126.74C1020.11 140.97 1031.4 150.09 1044.54 150.09C1054.59 150.09 1064.02 144.83 1068.97 135.71H1085.05C1078.4 153.34 1062.32 164.78 1043.92 164.78C1019.8 164.78 1000.32 143.44 1000.32 120.56C1000.32 93.5 1020.73 74.64 1043.46 74.64C1068.66 74.64 1087.84 94.12 1087.84 118.71C1087.84 121.34 1087.84 123.81 1087.38 126.75H1016.41L1016.4 126.74ZM1071.75 114.37C1070.51 99.84 1057.68 89.32 1043.92 89.32C1030.16 89.32 1017.63 99.68 1016.4 114.37H1071.75Z" fill="#19C2DA"/>
<path d="M1170.4 162.62V149.32H1170.09C1164.06 159.53 1153.24 164.78 1141.02 164.78C1115.97 164.78 1095.56 145.92 1095.56 121.18C1095.56 93.81 1115.2 74.64 1140.4 74.64C1152.92 74.64 1163.44 79.28 1170.09 89.02H1170.4V76.96H1186.48V162.62H1170.4ZM1170.71 119.94C1170.71 103.24 1158.65 89.33 1140.87 89.33C1124.79 89.33 1111.65 103.09 1111.65 119.94C1111.65 136.79 1124.79 150.09 1140.87 150.09C1156.95 150.09 1170.71 136.17 1170.71 119.94Z" fill="#19C2DA"/>
<path d="M1316.82 162.62V114.69C1316.82 98.46 1310.02 89.33 1296.56 89.33C1282.33 89.33 1276.15 97.22 1276.15 114.38V162.62H1260.07V112.83C1260.07 95.98 1252.18 89.33 1240.59 89.33C1226.37 89.33 1219.41 97.68 1219.41 114.53V162.62H1203.33V76.96H1218.17V86.24H1218.48C1225.44 78.04 1231.93 74.64 1243.06 74.64C1254.19 74.64 1265.33 80.05 1269.65 89.02C1275.84 79.28 1284.34 74.64 1297.95 74.64C1320.22 74.64 1332.89 88.56 1332.89 110.67V162.62H1316.81H1316.82Z" fill="#19C2DA"/>
</g>
<defs>
<linearGradient id="paint0_linear_1_17" x1="25.32" y1="28.67" x2="175.35" y2="178.7" gradientUnits="userSpaceOnUse">
<stop stop-color="#816AFF"/>
<stop offset="0.23" stop-color="#7D72FD"/>
<stop offset="0.48" stop-color="#6E86F6"/>
<stop offset="1" stop-color="#00DAD1"/>
</linearGradient>
<clipPath id="clip0_1_17">
<rect width="1332.9" height="212.98" fill="white"/>
</clipPath>
</defs>
</svg>
